<svg class="img-fluid" id="outputsvg" xmlns="http://www.w3.org/2000/svg" style="transform: matrix(1, 0, 0, 1, 0, 0); transform-origin: 50% 50%; cursor: move; max-height: none; transition: transform 200ms ease-in-out 0s;" width="512" height="512" viewBox="0 0 5120 5120"><g id="l7FNG0RQka646nOCI0irneB" fill="rgb(49,61,64)" style="transform: none;"><g><path id="paMxd0TLf" d="M2967 3324 c-31 -10 -65 -32 -99 -64 l-50 -49 4 -62 c6 -78 27 -99 100 -99 53 0 76 9 121 46 40 34 77 31 127 -11 36 -30 49 -35 95 -35 38 0 60 6 79 21 23 18 26 27 26 86 0 64 -1 67 -39 104 -57 54 -133 79 -234 78 -45 0 -104 -7 -130 -15z"></path><path id="pQUOQOKDI" d="M2393 3260 c-36 -15 -43 -43 -43 -169 0 -117 1 -120 26 -140 37 -29 121 -29 158 0 26 20 26 22 26 144 0 152 -8 166 -91 171 -30 2 -64 0 -76 -6z"></path><path id="p1YwzqrQG" d="M3663 3246 c-27 -23 -28 -29 -31 -126 -4 -117 0 -142 30 -170 30 -28 125 -28 159 -1 22 18 24 28 27 131 4 124 -5 161 -44 179 -44 20 -110 14 -141 -13z"></path></g></g><g id="lvI2dNHyfVBBTNcneynAby" fill="rgb(107, 207, 201)" style="transform: none;"><g><path id="prX1xLZR4" d="M740 3635 c0 -4 7 -13 15 -19 8 -6 90 -144 183 -306 217 -380 209 -367 235 -372 12 -3 92 -21 177 -41 375 -88 702 -132 1128 -151 l112 -6 0 39 c0 26 -13 62 -42 114 -43 76 -43 76 -78 71 -26 -4 -42 0 -63 16 -25 20 -27 27 -27 95 l0 74 -82 -2 c-65 -1 -93 4 -129 20 -62 28 -121 83 -144 133 -16 35 -16 46 -6 81 13 44 80 124 112 134 15 5 19 16 19 56 0 56 8 54 -120 39 -296 -34 -736 -32 -1054 5 -66 8 -147 17 -178 21 -32 4 -58 3 -58 -1z"></path></g></g><g id="l1YkdmIi0DeFqFnzwto4Aj6" fill="rgb(207,107,113)" style="transform: none;"><g><path id="pzMstljQi" d="M375 4588 c-236 -45 -404 -285 -365 -521 24 -142 131 -286 252 -342 115 -53 516 -127 843 -156 180 -16 709 -14 881 3 112 11 131 11 130 -1 -1 -8 5 -16 12 -18 23 -8 13 52 -19 110 -67 125 -119 314 -119 437 0 106 43 238 111 337 16 23 29 51 29 63 0 19 -4 21 -37 16 -313 -47 -747 -52 -1069 -11 -71 9 -226 34 -344 56 -230 42 -230 42 -305 27z"></path><path id="pF4e0ftWi" d="M1132 2979 c3 -8 78 -142 167 -299 89 -157 170 -312 181 -346 38 -125 35 -252 -9 -379 -10 -27 -154 -300 -321 -605 -344 -631 -360 -661 -360 -711 0 -85 54 -169 134 -211 65 -34 131 -27 291 30 423 149 839 355 1190 588 136 90 154 105 137 111 -22 9 -54 84 -48 114 3 16 75 157 161 314 86 156 165 311 177 342 15 42 22 92 25 181 9 200 -6 248 -157 512 -50 87 -90 162 -90 169 0 6 -11 11 -25 11 -14 0 -25 -6 -25 -12 0 -24 -365 0 -675 43 -216 31 -654 122 -740 156 -14 5 -17 3 -13 -8z"></path></g></g><g id="l4WgmWNVdz0DnH70cH79SSL" fill="rgb(107, 207, 201)" style="transform: none;"><g><path id="p14cXtZt4L" d="M3305 3813 c-255 -20 -437 -48 -711 -108 -111 -24 -268 -54 -350 -65 -82 -12 -151 -24 -154 -27 -3 -2 2 -10 10 -16 21 -17 19 -40 -5 -54 -18 -11 -17 -12 15 -13 19 0 65 7 101 17 57 14 74 15 123 4 110 -25 209 -119 209 -200 0 -27 -9 -54 -25 -79 -25 -37 -25 -38 -7 -61 16 -19 19 -40 19 -116 0 -93 0 -94 -32 -118 l-31 -25 46 -82 c26 -46 47 -87 47 -91 0 -5 5 -9 10 -9 6 0 10 -7 10 -15 0 -13 22 -15 143 -15 438 1 929 56 1338 151 l85 20 67 122 c78 144 174 350 247 535 37 93 57 131 67 128 8 -3 13 2 13 13 0 15 -19 21 -117 39 -296 55 -506 73 -831 70 -136 -1 -265 -3 -287 -5z m740 -288 c90 -44 154 -137 137 -199 -16 -56 -69 -113 -138 -147 -60 -30 -76 -33 -145 -32 l-77 1 -4 -75 c-3 -64 -7 -78 -27 -94 -30 -25 -72 -24 -99 1 -29 27 -35 56 -30 140 3 53 9 74 25 92 l21 23 -24 30 c-30 38 -39 84 -25 127 16 49 88 115 157 144 75 31 150 28 229 -11z m-840 -236 c78 -29 135 -85 135 -132 0 -27 -7 -41 -26 -56 -37 -29 -67 -26 -108 10 -46 40 -94 53 -145 39 -21 -5 -44 -17 -52 -26 -17 -21 -63 -44 -87 -44 -30 0 -61 31 -68 68 -6 30 -2 37 44 82 82 79 196 101 307 59z"></path></g></g><g id="l4Vw9wWgnJOmq4fT5KYzOOn" fill="rgb(228, 138, 143)" style="transform: none;"><g><path id="p14ZpJy7AH" d="M3260 4704 c-19 -2 -91 -9 -160 -15 -179 -16 -398 -51 -631 -103 -112 -24 -240 -50 -285 -57 l-80 -12 -36 -56 c-53 -83 -67 -114 -89 -198 -45 -176 -9 -413 92 -615 21 -41 35 -58 49 -58 52 0 324 45 480 80 430 96 593 114 1005 115 375 0 474 -9 890 -85 61 -11 135 -20 165 -20 194 1 364 125 431 316 17 48 20 77 17 160 -3 93 -6 107 -40 176 -72 144 -179 221 -365 263 -355 80 -600 106 -1043 110 -201 2 -381 1 -400 -1z"></path><path id="ppO3SKBae" d="M2175 3575 c-53 -17 -18 -18 95 0 l85 13 -70 0 c-38 0 -88 -5 -110 -13z"></path><path id="pWhSGvyYg" d="M4105 2939 c-58 -18 -422 -88 -565 -108 -274 -39 -573 -60 -832 -61 -89 0 -128 -3 -128 -11 0 -7 40 -82 90 -169 107 -188 134 -247 151 -329 16 -83 7 -230 -20 -304 -11 -31 -91 -187 -177 -345 -140 -255 -158 -293 -162 -343 -3 -43 1 -65 17 -97 12 -23 28 -42 35 -42 15 0 125 77 236 163 149 117 325 271 473 416 86 85 157 149 157 142 0 -6 5 -11 10 -11 6 0 10 11 10 23 0 19 -8 26 -42 37 -106 31 -208 99 -208 138 0 47 85 107 206 147 49 16 50 17 74 87 28 83 69 150 104 173 24 16 28 16 58 -2 24 -14 44 -42 73 -101 22 -44 46 -81 53 -82 6 0 12 4 12 10 0 5 35 58 78 117 134 184 352 528 352 554 0 11 -15 10 -55 -2z"></path></g></g><g id="l3H0p2bFzZkrrichpQ5685R" fill="rgb(255,142,158)" style="transform: none;"><g><path id="p13kp8CHhp" d="M2175 3576 c-123 -39 -195 -124 -195 -231 0 -143 164 -253 345 -230 54 6 55 7 55 38 0 67 54 101 113 72 30 -15 32 -15 49 7 46 59 47 163 3 230 -69 105 -237 156 -370 114z"></path><path id="p10zOgEWeB" d="M3786 3565 c-66 -27 -131 -84 -152 -132 -19 -43 -18 -127 2 -169 24 -51 37 -57 71 -37 26 14 35 15 60 4 32 -13 53 -47 53 -86 0 -21 6 -25 45 -31 118 -17 252 34 314 121 33 45 36 56 36 115 0 56 -4 73 -28 108 -78 119 -257 167 -401 107z"></path></g></g><g id="l3v7EyLGugUuzoLahvpha1l" fill="rgb(255,206,113)" style="transform: none;"><g><path id="py7G7fSNc" d="M4696 3129 c-23 -18 -26 -27 -26 -84 0 -57 3 -66 27 -85 19 -15 35 -19 53 -15 42 10 60 41 60 105 0 51 -3 61 -26 79 -15 12 -34 21 -44 21 -10 0 -29 -9 -44 -21z"></path><path id="pyA2JWqBe" d="M4481 2914 c-12 -15 -21 -34 -21 -44 0 -10 9 -29 21 -44 18 -23 28 -26 79 -26 64 0 95 18 105 60 4 18 0 34 -15 53 -19 24 -28 27 -85 27 -57 0 -66 -3 -84 -26z"></path><path id="pHar8qbRK" d="M4831 2914 c-27 -35 -26 -59 4 -89 20 -20 34 -25 78 -25 88 0 131 56 87 113 -19 24 -28 27 -85 27 -57 0 -66 -3 -84 -26z"></path><path id="pVdNb0q7l" d="M4696 2779 c-23 -18 -26 -27 -26 -84 0 -57 3 -66 26 -84 35 -27 59 -26 89 4 21 20 25 34 25 80 0 46 -4 60 -25 80 -30 30 -54 31 -89 4z"></path><path id="pjYJZUOcy" d="M693 2655 c-36 -15 -43 -31 -43 -99 0 -42 5 -57 23 -74 29 -27 71 -28 97 -2 27 27 29 139 3 162 -28 24 -47 27 -80 13z"></path><path id="pvk00EXSE" d="M3479 2451 c-32 -34 -99 -176 -99 -210 0 -5 -23 -16 -52 -26 -176 -57 -245 -134 -201 -222 14 -28 35 -46 88 -75 39 -20 91 -43 117 -49 44 -12 48 -15 63 -63 26 -78 72 -162 101 -185 31 -25 83 -27 123 -7 30 16 81 103 110 189 18 51 19 52 87 78 175 64 227 135 168 226 -16 25 -110 76 -189 103 -49 17 -50 18 -66 76 -20 79 -73 171 -109 189 -16 8 -46 15 -66 15 -30 0 -44 -7 -75 -39z"></path><path id="pX7UnKXuY" d="M482 2444 c-35 -24 -46 -51 -32 -84 14 -34 48 -50 106 -50 96 0 128 95 47 138 -31 17 -95 15 -121 -4z"></path><path id="p1DCWzTHkl" d="M832 2444 c-35 -24 -46 -51 -32 -84 14 -34 48 -50 106 -50 93 0 130 96 53 135 -37 19 -99 19 -127 -1z"></path><path id="pd5PmVCKu" d="M670 2290 c-30 -30 -29 -129 3 -158 29 -27 71 -28 97 -2 25 25 28 124 4 158 -20 29 -76 30 -104 2z"></path></g></g></svg>